<?xml version="1.0" encoding="UTF-8"?>
<svg width="48px" height="42px" viewBox="0 0 48 42" version="1.1" xmlns="http://www.w3.org/2000/svg" xmlns:xlink="http://www.w3.org/1999/xlink">
    <!-- Generator: Sketch 53.2 (72643) - https://sketchapp.com -->
    <title>color</title>
    <desc>Created with Sketch.</desc>
    <g id="Page-1" stroke="none" stroke-width="1" fill="none" fill-rule="evenodd">
        <g id="color" fill="#000000" fill-rule="nonzero">
            <path d="M9.63010343,13.4405101 C12.5394541,14.9502329 17.0043649,15.8132814 22.2879637,15.9652275 C22.6382939,15.3866801 23.2738823,15 24.0002,15 C25.1042,15 26.0002,15.895 26.0002,16.999 C26.0002,18.104 25.1042,19 24.0002,19 C23.2547275,19 22.604833,18.5922005 22.2608453,17.9875443 C16.3797215,17.8298121 11.377472,16.8560886 8.10192618,14.9686874 L3.60690678,19.4637068 C1.46443107,21.6061825 1.46443107,25.0780175 3.60690678,27.2204932 L14.7809068,38.3944932 C16.9215133,40.5350997 20.3953483,40.5348381 22.5366932,38.3934932 L39.5856263,21.3426398 L31.5758769,13.3328904 C31.5643019,13.3218558 31.5530027,13.3105555 31.541986,13.2989995 L20.8257967,2.5828103 C20.653933,2.82582507 20.377476,2.98961759 20.0619706,3.00864295 L9.63010343,13.4405101 Z M7.91492232,12.3272641 L17.137916,3.1042704 C10.2121721,3.57514111 6.0107,5.77512339 6.0107,8.698 C6.0107,10.10093 6.68942892,11.3145308 7.91492232,12.3272641 Z M19.2467822,0.99540423 L19.9496932,0.292493219 C20.3402175,-0.0980310729 20.9733825,-0.0980310729 21.3639068,0.292493219 L32.7547996,11.6833861 C32.8606447,11.7052035 32.9835954,11.7319023 33.1225308,11.7638483 C33.6525519,11.8857179 34.2405914,12.04539 34.8724762,12.2476346 C36.6758638,12.824837 38.4795018,13.6297112 40.1691732,14.7035441 C45.0455286,17.8026028 48.0003,22.4767965 48.0003,28.9454 C48.0003,34.8763744 47.0407144,38.5225378 45.2393224,39.2546825 C43.0725775,40.1353186 41.7253,37.3022541 41.7253,33.5174 C41.7253,29.3278505 41.0823478,26.6688827 40.0678191,25.2315647 C39.8065766,24.8614535 39.5470089,24.6125984 39.30068,24.4562046 L23.9509466,39.807667 C21.028561,42.7300526 16.288396,42.7304096 13.3666932,39.8087068 L2.19269322,28.6347068 C-0.730831073,25.7111825 -0.730831073,20.9730175 2.19269322,18.0494932 L6.43909173,13.8030947 C4.86882946,12.4500877 3.9897,10.7556097 3.9897,8.698 C3.9897,3.9543344 10.0595431,1.14052908 19.2467822,0.99540423 Z M35.7638679,14.6924543 L41.7069068,20.6354932 C42.0974155,21.026002 42.0974333,21.6591362 41.7069466,22.049667 L40.7378238,23.0188989 C41.0621261,23.285535 41.3883836,23.6342345 41.7017809,24.0782353 C42.9878772,25.9002923 43.7253,28.9499495 43.7253,33.5174 C43.7253,34.9606748 43.943841,36.15775 44.296352,36.8990125 C44.3981434,37.1130602 44.499565,37.2631357 44.5812136,37.3470774 C45.264118,36.837659 46.0003,33.8234096 46.0003,28.9454 C46.0003,23.2121285 43.4294464,19.1452597 39.0964268,16.3915059 C38.0288686,15.7130432 36.904971,15.1500976 35.7638679,14.6924543 Z" id="Combined-Shape"></path>
        </g>
    </g>
</svg>