<?xml version="1.0" encoding="UTF-8"?>
<svg width="46px" height="35px" viewBox="0 0 46 35" version="1.1" xmlns="http://www.w3.org/2000/svg" xmlns:xlink="http://www.w3.org/1999/xlink">
    <!-- Generator: Sketch 53.2 (72643) - https://sketchapp.com -->
    <title>inbox</title>
    <desc>Created with Sketch.</desc>
    <g id="Page-1" stroke="none" stroke-width="1" fill="none" fill-rule="evenodd">
        <g id="inbox" fill="#000000" fill-rule="nonzero">
            <path d="M29,19 C29,18.4477153 29.4477153,18 30,18 L45,18 C45.5522847,18 46,18.4477153 46,19 L46,34 C46,34.5522847 45.5522847,35 45,35 L1,35 C0.44771525,35 0,34.5522847 0,34 L0,19 C0,18.4477153 0.44771525,18 1,18 L16,18 C16.5522847,18 17,18.4477153 17,19 C17,22.3137153 19.6862847,25 23,25 C26.3137153,25 29,22.3137153 29,19 Z" id="Path"></path>
            <path d="M7.72075922,2 L1.9486833,19.3162278 C1.77403553,19.8401711 1.20771555,20.1233311 0.683772234,19.9486833 C0.159828916,19.7740355 -0.123331071,19.2077156 0.0513167019,18.6837722 L6.0513167,0.683772234 C6.18743075,0.275430095 6.56956959,0 7,0 L39,0 C39.4304304,0 39.8125693,0.275430095 39.9486833,0.683772234 L45.9486833,18.6837722 C46.1233311,19.2077156 45.8401711,19.7740355 45.3162278,19.9486833 C44.7922844,20.1233311 44.2259645,19.8401711 44.0513167,19.3162278 L38.2792408,2 L7.72075922,2 Z" id="Path"></path>
        </g>
    </g>
</svg>