<?xml version="1.0" encoding="UTF-8"?>
<svg width="40px" height="40px" viewBox="0 0 40 40" version="1.1" xmlns="http://www.w3.org/2000/svg" xmlns:xlink="http://www.w3.org/1999/xlink">
    <!-- Generator: Sketch 53.2 (72643) - https://sketchapp.com -->
    <title>prio</title>
    <desc>Created with Sketch.</desc>
    <g id="Page-1" stroke="none" stroke-width="1" fill="none" fill-rule="evenodd">
        <g id="prio" fill="#000000" fill-rule="nonzero">
            <path d="M2.5,24.3197427 L2.5,39 C2.5,39.5522847 2.05228475,40 1.5,40 C0.94771525,40 0.5,39.5522847 0.5,39 L0.5,3 C0.5,2.62985882 0.701099315,2.30668691 1,2.1337822 L1,2.12321676 L1.30618976,1.82822923 C1.63300813,1.51336781 2.31764232,1.14541134 3.48465653,0.812546179 C5.27799292,0.301036374 7.8193269,0 11.25,0 C14.596862,0 16.7017495,0.612143533 20.8561855,2.39197561 L20.8828173,2.40338521 C24.8293313,4.09415061 26.7233475,4.64516129 29.75,4.64516129 C31.7819835,4.64516129 33.7605474,4.28571521 35.626099,3.67086576 C36.844733,3.26922775 37.7855852,2.84463838 38.5223097,2.44405237 L40,1.64057407 L40,23.2577481 L39.4961308,23.5456671 C39.3470284,23.6308667 39.081324,23.7700147 38.7101508,23.94492 C38.102052,24.23147 37.4113282,24.5169145 36.6489292,24.7828981 C34.4693888,25.54329 32.1406522,26 29.75,26 C25.7515913,26 22.9692733,25.5179634 19.1257657,24.4126628 C18.8488246,24.3330212 17.9222685,24.0631811 17.8868309,24.0529114 C17.4072931,23.9139421 17.0449249,23.8113567 16.6932397,23.7160129 C14.6362502,23.1583518 13.0648635,22.9032258 11.25,22.9032258 C8.59080049,22.9032258 6.35126556,23.1832417 4.52005287,23.6468362 C3.88984966,23.80638 3.3578831,23.9757713 2.92281416,24.1430575 C2.71724487,24.2221 2.57654553,24.2832601 2.5,24.3197427 Z M36.2521353,5.57036005 C34.1958103,6.24808472 32.01011,6.64516129 29.75,6.64516129 C26.3820119,6.64516129 24.2728592,6.03156268 20.095214,4.24177608 L20.0685863,4.23036827 C16.145239,2.54953855 14.255622,2 11.25,2 C7.99321216,2 5.6327688,2.27960879 4.0332341,2.73584092 C3.59980185,2.85946794 3.2587446,2.98627691 3,3.10873372 L3,21.9972445 C3.30473723,21.9019883 3.64772162,21.8045818 4.02921276,21.7080025 C6.02061074,21.2038551 8.42500941,20.9032258 11.25,20.9032258 C13.2642411,20.9032258 15.0024608,21.1854384 17.21656,21.7856928 C17.5813392,21.8845864 17.9538392,21.9900401 18.4435225,22.1319495 C18.4818171,22.1430472 19.4054365,22.412032 19.6785155,22.490563 C23.3568475,23.548363 25.9636986,24 29.75,24 C31.8965691,24 34.0088443,23.5857423 35.9901177,22.8945212 C36.6840035,22.6524403 37.3105195,22.39353 37.8576168,22.1357252 C37.9075612,22.1121903 37.955037,22.0895415 38,22.0678466 L38,4.91381392 C37.4802113,5.13593215 36.9007712,5.35658231 36.2521353,5.57036005 Z" id="Combined-Shape"></path>
        </g>
    </g>
</svg>