<?xml version="1.0" encoding="UTF-8"?>
<svg width="79px" height="36px" viewBox="0 0 79 36" version="1.1" xmlns="http://www.w3.org/2000/svg" xmlns:xlink="http://www.w3.org/1999/xlink">
    <!-- Generator: Sketch 53.2 (72643) - https://sketchapp.com -->
    <title>Combined Shape</title>
    <desc>Created with Sketch.</desc>
    <g id="Page-1" stroke="none" stroke-width="1" fill="none" fill-rule="evenodd">
        <path d="M19,0.0273083803 L19,0 L60,0 L60,0.0273083803 C60.3310304,0.00918197471 60.6644429,0 61,0 C70.9411255,0 79,8.0588745 79,18 C79,27.9411255 70.9411255,36 61,36 C60.6644429,36 60.3310304,35.990818 60,35.9726916 L60,36 L19,36 L19,35.9726916 C18.6689696,35.990818 18.3355571,36 18,36 C8.0588745,36 0,27.9411255 0,18 C0,8.0588745 8.0588745,0 18,0 C18.3355571,0 18.6689696,0.00918197471 19,0.0273083803 Z M60,33 C68.2842712,33 75,26.2842712 75,18 C75,9.71572875 68.2842712,3 60,3 C51.7157288,3 45,9.71572875 45,18 C45,26.2842712 51.7157288,33 60,33 Z" id="Combined-Shape" fill="#000000"></path>
    </g>
</svg>